<?xml version="1.0" encoding="UTF-8" standalone="no"?>
<!-- Created with Inkscape (http://www.inkscape.org/) -->

<svg
   width="64"
   height="64"
   viewBox="0 0 64 64"
   version="1.1"
   id="svg1"
   sodipodi:docname="Open.svg"
   inkscape:version="1.3 (0e150ed6c4, 2023-07-21)"
   inkscape:export-filename="Open.png"
   inkscape:export-xdpi="600"
   inkscape:export-ydpi="600"
   xmlns:inkscape="http://www.inkscape.org/namespaces/inkscape"
   xmlns:sodipodi="http://sodipodi.sourceforge.net/DTD/sodipodi-0.dtd"
   xmlns="http://www.w3.org/2000/svg"
   xmlns:svg="http://www.w3.org/2000/svg">
  <sodipodi:namedview
     id="namedview1"
     pagecolor="#ffffff"
     bordercolor="#999999"
     borderopacity="1"
     inkscape:showpageshadow="0"
     inkscape:pageopacity="0"
     inkscape:pagecheckerboard="0"
     inkscape:deskcolor="#d1d1d1"
     inkscape:zoom="8.4079416"
     inkscape:cx="36.096825"
     inkscape:cy="27.652428"
     inkscape:window-width="1920"
     inkscape:window-height="1051"
     inkscape:window-x="1920"
     inkscape:window-y="0"
     inkscape:window-maximized="1"
     inkscape:current-layer="svg1"
     showgrid="true">
    <inkscape:grid
       id="grid2"
       units="px"
       originx="0"
       originy="0"
       spacingx="1"
       spacingy="1"
       empcolor="#0099e5"
       empopacity="0.30196078"
       color="#0099e5"
       opacity="0.14901961"
       empspacing="5"
       dotted="false"
       gridanglex="30"
       gridanglez="30"
       visible="true" />
  </sodipodi:namedview>
  <defs
     id="defs1">
    <marker
       style="overflow:visible"
       id="RoundedArrow"
       refX="0"
       refY="0"
       orient="auto-start-reverse"
       inkscape:stockid="Rounded arrow"
       markerWidth="0.5"
       markerHeight="0.5"
       viewBox="0 0 1 1"
       inkscape:isstock="true"
       inkscape:collect="always"
       preserveAspectRatio="xMidYMid">
      <path
         transform="scale(0.7)"
         d="m -0.21114562,-4.1055728 6.42229122,3.21114561 a 1,1 90 0 1 0,1.78885438 L -0.21114562,4.1055728 A 1.236068,1.236068 31.717474 0 1 -2,3 v -6 a 1.236068,1.236068 148.28253 0 1 1.78885438,-1.1055728 z"
         style="fill:context-stroke;fill-rule:evenodd;stroke:none"
         id="path8" />
    </marker>
    <marker
       style="overflow:visible"
       id="Triangle"
       refX="0"
       refY="0"
       orient="auto-start-reverse"
       markerWidth="0.5"
       markerHeight="0.5"
       viewBox="0 0 1 1"
       preserveAspectRatio="xMidYMid"
       markerUnits="strokeWidth">
      <path
         transform="scale(0.5)"
         style="fill:context-stroke;fill-rule:evenodd;stroke:context-stroke;stroke-width:1pt"
         d="M 5.77,0 -2.88,5 V -5 Z"
         id="path135" />
    </marker>
  </defs>
  <g
     id="g1"
     transform="matrix(0.7546962,0,0,0.7546962,15.699443,15.699443)">
    <rect
       style="fill:#ffffff;stroke:none;stroke-width:0.5;stroke-linecap:round;stroke-linejoin:round"
       id="rect1"
       width="64"
       height="64"
       x="0"
       y="0" />
    <g
       id="layer1">
      <path
         style="fill:none;stroke:#000000;stroke-width:2.1;stroke-linecap:butt;stroke-linejoin:miter;stroke-dasharray:none;stroke-opacity:1;marker-start:url(#Triangle);marker-end:url(#Triangle)"
         d="M 6,6 V 58 H 58"
         id="path1" />
      <path
         style="fill:none;stroke:#0064a8;stroke-width:1.4;stroke-linecap:butt;stroke-linejoin:miter;stroke-dasharray:none;stroke-opacity:1"
         d="M 7.0258159,54 H 12 l 2,-34 c 2,-14 2,-14 4,0 l 0.999894,16 C 21.10386,47.271209 22.333299,36.619596 24,36.929372 23.93698,51.241646 27.817009,33.139054 28.098435,32 28.582425,30.04108 30,40 30,42 c 0,2 1.042081,8 1.042081,8 l 4.008241,3.133492 C 34.846672,53.729122 38.816631,42.078085 40,46 c 4.540886,15.04938 1.880407,-7.969284 4,-8 1.99979,-0.02898 1.160686,-9.328415 2,-10 1.795766,-1.4369 1.212743,21.936284 6,-2 l 2,-10 c 1.125775,-0.294344 2,13.706114 2,16 v 10 c 0,2 2.962113,6 2.962113,6"
         id="path2" />
    </g>
  </g>
  <g
     id="g2"
     transform="matrix(0.49849915,0,0,0.49849915,2,-22.426459)">
    <rect
       style="fill:#ffffff;stroke:#000000;stroke-width:1.4;stroke-linejoin:round;stroke-opacity:1"
       id="rect1-3"
       width="42"
       height="60"
       x="0.69999999"
       y="49.700001"
       ry="0" />
    <path
       style="fill:none;stroke:#000000;stroke-width:3;stroke-linecap:round;stroke-linejoin:miter;stroke-dasharray:none;stroke-opacity:1"
       d="m 4.7,67.7 h 34"
       id="path3" />
    <path
       style="fill:none;stroke:#000000;stroke-width:3;stroke-linecap:round;stroke-linejoin:miter;stroke-dasharray:none;stroke-opacity:1"
       d="m 4.7,79.7 h 34"
       id="path3-3" />
    <path
       style="fill:none;stroke:#000000;stroke-width:3;stroke-linecap:round;stroke-linejoin:miter;stroke-dasharray:none;stroke-opacity:1"
       d="m 4.7,91.7 h 34"
       id="path3-1" />
    <path
       style="fill:none;stroke:#000000;stroke-width:3;stroke-linecap:round;stroke-linejoin:miter;stroke-dasharray:none;stroke-opacity:1"
       d="m 4.7,55.7 34,0.157687"
       id="path4" />
    <path
       style="fill:none;stroke:#000000;stroke-width:3;stroke-linecap:round;stroke-linejoin:miter;stroke-dasharray:none;stroke-opacity:1"
       d="m 4.7,103.7 34,-0.003"
       id="path5" />
  </g>
  <path
     style="fill:none;stroke:#0d882b;stroke-width:5;stroke-linecap:round;stroke-linejoin:miter;stroke-dasharray:none;stroke-opacity:1;marker-end:url(#RoundedArrow)"
     d="M 16,14 C 29.536172,8.5083036 44.966928,-1.6307076 45,26"
     id="path6"
     sodipodi:nodetypes="cc" />
</svg>
