<?xml version="1.0" encoding="UTF-8" standalone="no"?>
<!-- Created with Inkscape (http://www.inkscape.org/) -->

<svg
   width="64"
   height="64"
   viewBox="0 0 64 64"
   version="1.1"
   id="svg1"
   sodipodi:docname="Spectra.svg"
   inkscape:version="1.3 (0e150ed6c4, 2023-07-21)"
   inkscape:export-filename="Spectra.png"
   inkscape:export-xdpi="300"
   inkscape:export-ydpi="300"
   xmlns:inkscape="http://www.inkscape.org/namespaces/inkscape"
   xmlns:sodipodi="http://sodipodi.sourceforge.net/DTD/sodipodi-0.dtd"
   xmlns="http://www.w3.org/2000/svg"
   xmlns:svg="http://www.w3.org/2000/svg">
  <sodipodi:namedview
     id="namedview1"
     pagecolor="#ffffff"
     bordercolor="#999999"
     borderopacity="1"
     inkscape:showpageshadow="0"
     inkscape:pageopacity="0"
     inkscape:pagecheckerboard="0"
     inkscape:deskcolor="#d1d1d1"
     showgrid="true"
     inkscape:zoom="8.4079416"
     inkscape:cx="34.729071"
     inkscape:cy="34.550668"
     inkscape:window-width="1920"
     inkscape:window-height="1007"
     inkscape:window-x="0"
     inkscape:window-y="0"
     inkscape:window-maximized="1"
     inkscape:current-layer="layer1">
    <inkscape:grid
       id="grid1"
       units="px"
       originx="0"
       originy="0"
       spacingx="1"
       spacingy="1"
       empcolor="#0099e5"
       empopacity="0.30196078"
       color="#0099e5"
       opacity="0.14901961"
       empspacing="5"
       dotted="false"
       gridanglex="30"
       gridanglez="30"
       visible="true" />
  </sodipodi:namedview>
  <defs
     id="defs1">
    <marker
       style="overflow:visible"
       id="Triangle"
       refX="0"
       refY="0"
       orient="auto-start-reverse"
       markerWidth="0.5"
       markerHeight="0.5"
       viewBox="0 0 1 1"
       preserveAspectRatio="xMidYMid"
       markerUnits="strokeWidth">
      <path
         transform="scale(0.5)"
         style="fill:context-stroke;fill-rule:evenodd;stroke:context-stroke;stroke-width:1pt"
         d="M 5.77,0 -2.88,5 V -5 Z"
         id="path135" />
    </marker>
  </defs>
  <g
     id="layer1">
    <rect
       style="fill:#ffffff;stroke:none;stroke-width:0.5;stroke-linecap:round;stroke-linejoin:round"
       id="rect1"
       width="64"
       height="64"
       x="0"
       y="0" />
    <path
       style="fill:none;stroke:#000000;stroke-width:2.1;stroke-linecap:butt;stroke-linejoin:miter;stroke-opacity:1;marker-start:url(#Triangle);marker-end:url(#Triangle);stroke-dasharray:none"
       d="M 6,6 V 58 H 58"
       id="path1" />
    <path
       style="fill:none;stroke:#0064a8;stroke-width:1.4;stroke-linecap:butt;stroke-linejoin:miter;stroke-dasharray:none;stroke-opacity:1"
       d="M 7.0258159,54 12,54 14,20 c 2,-14 2,-14 4,0 l 0.999894,16 C 21.10386,47.271209 22.333299,36.619596 24,36.929372 23.93698,51.241646 27.817009,33.139054 28.098435,32 28.582425,30.04108 30,40 30,42 c 0,2 1.042081,8 1.042081,8 l 4.008241,3.133492 C 34.846672,53.729122 38.816631,42.078085 40,46 c 4.540886,15.04938 1.880407,-7.969284 4,-8 1.99979,-0.02898 1.160686,-9.328415 2,-10 1.795766,-1.4369 1.212743,21.936284 6,-2 l 2,-10 c 1.125775,-0.294344 2,13.706114 2,16 v 10 c 0,2 2.962113,6 2.962113,6"
       id="path2" />
    <path
       style="fill:none;stroke:#b61b3d;stroke-width:1.4;stroke-linecap:butt;stroke-linejoin:round;stroke-dasharray:none;stroke-opacity:1"
       d="m 7,46 c 2,0 2.3306694,3.102129 3,-8 0.680567,-8.98518 -0.020501,-20.712469 2,-27 2.600461,5.801034 1.742919,17.735522 5,17 3.997856,16.793407 5.244558,3.80878 9,-8 4.506601,36.302289 10.140616,10.03208 15,-7.477004 4.111931,12.340143 2.801563,13.909526 7,4.477004 3,10 5,19 9,9 0.525226,-1.313064 2.52466,28.7 2.52466,28.7"
       id="path3"
       sodipodi:nodetypes="cccccccsc" />
    <path
       style="fill:none;stroke:#0d882b;stroke-width:1.4;stroke-linecap:butt;stroke-linejoin:round;stroke-dasharray:none;stroke-opacity:1"
       d="M 7,54 H 24 C 28.423192,15.93679 29.807782,36.927306 32,42.221987 35,-5 31.804666,40.183442 41,54 c 1.516548,-3.990112 2.792754,-13.677705 4,-25 2,-29 1.881065,-29 5,0 1.530263,18.286373 5.413019,20.641692 9,25"
       id="path4"
       sodipodi:nodetypes="ccccccc" />
  </g>
</svg>
