<?xml version="1.0" encoding="UTF-8" standalone="no"?>
<!-- Created with Inkscape (http://www.inkscape.org/) -->

<svg
   width="64"
   height="64"
   viewBox="0 0 64 64"
   version="1.1"
   id="svg1"
   sodipodi:docname="Zoom.svg"
   inkscape:version="1.3 (0e150ed6c4, 2023-07-21)"
   inkscape:export-filename="Zoom.png"
   inkscape:export-xdpi="300"
   inkscape:export-ydpi="300"
   xmlns:inkscape="http://www.inkscape.org/namespaces/inkscape"
   xmlns:sodipodi="http://sodipodi.sourceforge.net/DTD/sodipodi-0.dtd"
   xmlns="http://www.w3.org/2000/svg"
   xmlns:svg="http://www.w3.org/2000/svg">
  <sodipodi:namedview
     id="namedview1"
     pagecolor="#ffffff"
     bordercolor="#999999"
     borderopacity="1"
     inkscape:showpageshadow="0"
     inkscape:pageopacity="0"
     inkscape:pagecheckerboard="0"
     inkscape:deskcolor="#d1d1d1"
     inkscape:zoom="5.9453125"
     inkscape:cx="37.508541"
     inkscape:cy="37.424442"
     inkscape:window-width="1920"
     inkscape:window-height="1007"
     inkscape:window-x="0"
     inkscape:window-y="0"
     inkscape:window-maximized="1"
     inkscape:current-layer="svg1"
     showgrid="true">
    <inkscape:grid
       id="grid1"
       units="px"
       originx="0"
       originy="0"
       spacingx="1"
       spacingy="1"
       empcolor="#0099e5"
       empopacity="0.30196078"
       color="#0099e5"
       opacity="0.14901961"
       empspacing="5"
       dotted="false"
       gridanglex="30"
       gridanglez="30"
       visible="true" />
  </sodipodi:namedview>
  <defs
     id="defs1">
    <marker
       style="overflow:visible"
       id="Triangle"
       refX="0"
       refY="0"
       orient="auto-start-reverse"
       markerWidth="0.5"
       markerHeight="0.5"
       viewBox="0 0 1 1"
       preserveAspectRatio="xMidYMid"
       markerUnits="strokeWidth">
      <path
         transform="scale(0.5)"
         style="fill:context-stroke;fill-rule:evenodd;stroke:context-stroke;stroke-width:1pt"
         d="M 5.77,0 -2.88,5 V -5 Z"
         id="path135" />
    </marker>
  </defs>
  <rect
     style="fill:#ffffff;stroke-width:5;stroke-linecap:round;stroke-linejoin:round"
     id="rect2"
     width="64"
     height="64"
     x="0"
     y="0" />
  <g
     id="g3"
     transform="matrix(0.75,0,0,0.75,8.2485257,7.7514743)">
    <g
       id="layer1">
      <path
         style="fill:none;stroke:#000000;stroke-width:2.1;stroke-linecap:butt;stroke-linejoin:miter;stroke-dasharray:none;stroke-opacity:1;marker-start:url(#Triangle);marker-end:url(#Triangle)"
         d="M 6,6 V 58 H 58"
         id="path1" />
      <path
         style="fill:none;stroke:#0064a8;stroke-width:1.4;stroke-linecap:butt;stroke-linejoin:miter;stroke-dasharray:none;stroke-opacity:1"
         d="M 7.0258159,54 H 12 l 2,-34 c 2,-14 2,-14 4,0 l 0.999894,16 C 21.10386,47.271209 22.333299,36.619596 24,36.929372 23.93698,51.241646 27.817009,33.139054 28.098435,32 28.582425,30.04108 30,40 30,42 c 0,2 1.042081,8 1.042081,8 l 4.008241,3.133492 C 34.846672,53.729122 38.816631,42.078085 40,46 c 4.540886,15.04938 1.880407,-7.969284 4,-8 1.99979,-0.02898 1.160686,-9.328415 2,-10 1.795766,-1.4369 1.212743,21.936284 6,-2 l 2,-10 c 1.125775,-0.294344 2,13.706114 2,16 v 10 c 0,2 2.962113,6 2.962113,6"
         id="path2" />
    </g>
    <rect
       style="fill:#ffffff;fill-opacity:0.533333;stroke:none;stroke-width:0.5;stroke-linecap:round;stroke-linejoin:round"
       id="rect1"
       width="64"
       height="64"
       x="0"
       y="0" />
  </g>
  <g
     id="g8"
     transform="translate(-4.405115,0.070702)">
    <g
       id="g9"
       transform="translate(-66.61328,-11.317772)">
      <ellipse
         style="fill:#ffffff;fill-opacity:1;stroke:none;stroke-width:5;stroke-linecap:round;stroke-linejoin:round;stroke-dasharray:none;stroke-opacity:1"
         id="path8"
         cx="33"
         cy="100.35"
         rx="18.982321"
         ry="18.75293"
         transform="translate(63.018395,-65.349999)" />
      <path
         d="m 37.105469,118.52344 c -0.0206,-0.20318 -0.04587,-0.42242 -0.06055,-0.60547 C 37.016428,117.5625 37,117.25 37,117 c 0,-0.25 -0.02279,-0.62409 -0.0625,-1.08398 -0.03971,-0.4599 -0.09579,-1.00552 -0.166016,-1.59766 -0.140459,-1.18429 -0.333569,-2.5553 -0.541015,-3.80273 -0.103723,-0.62372 -0.211666,-1.2172 -0.31836,-1.74024 -0.106693,-0.52304 -0.21202,-0.9756 -0.3125,-1.32031 -0.05024,-0.17236 -0.09952,-0.31843 -0.146484,-0.43164 -0.04696,-0.11322 -0.09222,-0.19391 -0.134766,-0.23828 -0.02127,-0.0222 -0.0406,-0.0359 -0.06055,-0.0391 -0.01995,-0.003 -0.04011,0.004 -0.05859,0.0215 -0.03697,0.0342 -0.07131,0.10999 -0.101563,0.23242 -0.07036,0.28476 -0.365235,1.63001 -0.767578,3.26367 -0.201171,0.81684 -0.42799,1.70558 -0.667969,2.57031 -0.239979,0.86474 -0.49286,1.70604 -0.742187,2.42579 -0.124664,0.35987 -0.247664,0.6891 -0.369141,0.97656 -0.121476,0.28746 -0.240861,0.53171 -0.355469,0.72265 -0.0573,0.0955 -0.113072,0.17733 -0.167968,0.24415 -0.0549,0.0668 -0.110082,0.11914 -0.16211,0.15429 -0.05203,0.0352 -0.101691,0.0542 -0.15039,0.0547 -0.0487,4.7e-4 -0.09571,-0.0175 -0.140625,-0.0547 -0.04491,-0.0372 -0.08825,-0.094 -0.128907,-0.17187 -0.04066,-0.0779 -0.07928,-0.17719 -0.115234,-0.29883 -0.07191,-0.24329 -0.133287,-0.57742 -0.183594,-1.01367 -0.05031,-0.43626 -0.08826,-0.97558 -0.113281,-1.62891 -0.02502,-0.65333 -0.03714,-1.41994 -0.0332,-2.31445 -0.05208,-0.01 -0.103027,-0.009 -0.154297,0.002 -0.05127,0.0107 -0.10376,0.0314 -0.154297,0.0605 -0.101073,0.0582 -0.20021,0.15168 -0.298828,0.27148 -0.09862,0.1198 -0.196166,0.26635 -0.292969,0.43164 -0.0968,0.16529 -0.193434,0.34824 -0.289062,0.54297 -0.191257,0.38946 -0.37991,0.82156 -0.570313,1.23242 -0.0952,0.20544 -0.19116,0.4051 -0.287109,0.5918 -0.09595,0.1867 -0.191726,0.36176 -0.289063,0.51367 -0.09734,0.15191 -0.195557,0.28175 -0.294921,0.38281 -0.09936,0.10107 -0.200701,0.17288 -0.302735,0.20704 -0.05102,0.0171 -0.102492,0.0241 -0.154297,0.0215 -0.0518,-0.003 -0.103578,-0.0147 -0.15625,-0.0391 -0.05267,-0.0244 -0.104584,-0.0612 -0.158203,-0.10938 -0.05362,-0.0482 -0.109416,-0.10773 -0.164062,-0.18164 -0.109293,-0.14781 -0.220101,-0.35039 -0.333985,-0.61328 -0.113883,-0.26289 -0.230495,-0.58645 -0.349609,-0.98047 -0.119114,-0.39402 -0.240249,-0.85723 -0.365234,-1.39844 C 26.25978,112.32403 26.131498,111.70445 26,111 L 25,95 C 24.75,93.250002 24.53125,91.718749 24.335937,90.40625 24.140625,89.093751 23.96875,87.999999 23.8125,87.125 23.734375,86.6875 23.661133,86.304687 23.589844,85.976562 23.518555,85.648438 23.449219,85.375 23.382812,85.15625 23.316406,84.9375 23.250976,84.773437 23.1875,84.664062 23.15576,84.609372 23.12512,84.568362 23.09375,84.541016 23.062378,84.513672 23.03125,84.5 23,84.5 c -0.03125,0 -0.06238,0.01367 -0.09375,0.04102 -0.03137,0.02734 -0.06201,0.06836 -0.09375,0.123046 -0.06348,0.109375 -0.128906,0.273438 -0.195313,0.492188 -0.06641,0.21875 -0.135742,0.492188 -0.207031,0.820312 C 22.338867,86.304687 22.265625,86.6875 22.1875,87.125 22.03125,87.999999 21.859375,89.093751 21.664062,90.40625 21.46875,91.718749 21.25,93.250002 21,95 l -1.097656,18.64453 a 18.981604,18.981604 0 0 0 0.896484,0.89649 18.981604,18.981604 0 0 0 2.708984,1.89843 18.981604,18.981604 0 0 0 3,1.39844 18.981604,18.981604 0 0 0 3.195313,0.85547 18.981604,18.981604 0 0 0 3.296875,0.28906 18.981604,18.981604 0 0 0 1.191406,-0.0371 18.981604,18.981604 0 0 0 1.1875,-0.11328 18.981604,18.981604 0 0 0 1.177735,-0.18555 18.981604,18.981604 0 0 0 0.548828,-0.12304 z"
         style="fill:none;stroke:#0064a8;stroke-width:1.4"
         id="path7"
         transform="translate(63.018395,-65.349999)" />
      <g
         id="g4"
         transform="translate(72.018396,10.018396)">
        <circle
           style="fill:none;fill-opacity:1;stroke:#000000;stroke-width:3.5;stroke-linecap:round;stroke-linejoin:round;stroke-opacity:1"
           id="path3-5"
           cx="24"
           cy="24.981604"
           r="18.981604" />
        <path
           style="fill:none;stroke:#000000;stroke-width:5;stroke-linecap:round;stroke-linejoin:miter;stroke-dasharray:none;stroke-opacity:1"
           d="M 38,40 57,59"
           id="path4"
           sodipodi:nodetypes="cc" />
      </g>
    </g>
  </g>
</svg>
